HIERARCHY
ROOT root
{
	OFFSET 0.000000 0.000000 0.000000
	CHANNELS 6 Xposition Yposition Zposition Zrotation Yrotation Xrotation
	JOINT lhip
	{
		OFFSET 0.058581 -0.082280 -0.017664
		CHANNELS 3 Zrotation Yrotation Xrotation
		JOINT lknee
		{
			OFFSET 0.043451 -0.386469 0.008037
			CHANNELS 3 Zrotation Yrotation Xrotation
			JOINT lankle
			{
				OFFSET -0.014790 -0.426874 -0.037428
				CHANNELS 3 Zrotation Yrotation Xrotation
				JOINT ltoe
				{
					OFFSET 0.041054 -0.060286 0.122042
					CHANNELS 3 Zrotation Yrotation Xrotation
					End Site
					{
						OFFSET 0.000000 0.000000 0.000000
					}
				}
			}
		}
	}
	JOINT rhip
	{
		OFFSET -0.060310 -0.090513 -0.013543
		CHANNELS 3 Zrotation Yrotation Xrotation
		JOINT rknee
		{
			OFFSET -0.043257 -0.383688 -0.004843
			CHANNELS 3 Zrotation Yrotation Xrotation
			JOINT rankle
			{
				OFFSET 0.019056 -0.420046 -0.034562
				CHANNELS 3 Zrotation Yrotation Xrotation
				JOINT rtoe
				{
					OFFSET -0.034840 -0.062106 0.130323
					CHANNELS 3 Zrotation Yrotation Xrotation
					End Site
					{
						OFFSET 0.000000 0.000000 0.000000
					}
				}
			}
		}
	}
	JOINT lowerback
	{
		OFFSET 0.004439 0.124404 -0.038385
		CHANNELS 3 Zrotation Yrotation Xrotation
		JOINT upperback
		{
			OFFSET 0.004488 0.137956 0.026820
			CHANNELS 3 Zrotation Yrotation Xrotation
			JOINT chest
			{
				OFFSET -0.002265 0.056032 0.002855
				CHANNELS 3 Zrotation Yrotation Xrotation
				JOINT lowerneck
				{
					OFFSET -0.013390 0.211636 -0.033468
					CHANNELS 3 Zrotation Yrotation Xrotation
					JOINT upperneck
					{
						OFFSET 0.010113 0.088937 0.050410
						CHANNELS 3 Zrotation Yrotation Xrotation
						End Site
						{
							OFFSET 0.000000 0.000000 0.000000
						}
					}
				}
				JOINT lclavicle
				{
					OFFSET 0.071702 0.114000 -0.018898
					CHANNELS 3 Zrotation Yrotation Xrotation
					JOINT lshoulder
					{
						OFFSET 0.122921 0.045205 -0.019046
						CHANNELS 3 Zrotation Yrotation Xrotation
						JOINT lelbow
						{
							OFFSET 0.255332 -0.015649 -0.022946
							CHANNELS 3 Zrotation Yrotation Xrotation
							JOINT lwrist
							{
								OFFSET 0.265709 0.012698 -0.007375
								CHANNELS 3 Zrotation Yrotation Xrotation
								End Site
								{
									OFFSET 0.000000 0.000000 0.000000
								}
							}
						}
					}
				}
				JOINT rclavicle
				{
					OFFSET -0.082954 0.112472 -0.023707
					CHANNELS 3 Zrotation Yrotation Xrotation
					JOINT rshoulder
					{
						OFFSET -0.113228 0.046853 -0.008472
						CHANNELS 3 Zrotation Yrotation Xrotation
						JOINT relbow
						{
							OFFSET -0.260127 -0.014369 -0.031269
							CHANNELS 3 Zrotation Yrotation Xrotation
							JOINT rwrist
							{
								OFFSET -0.269108 0.006794 -0.006027
								CHANNELS 3 Zrotation Yrotation Xrotation
								End Site
								{
									OFFSET 0.000000 0.000000 0.000000
								}
							}
						}
					}
				}
			}
		}
	}
}
MOTION
Frames: 16
Frame Time: 0.033333
-0.008598 -0.212218 0.947517 -174.914484 0.013302 90.448292 9.668642 1.507660 -19.941480 -7.993713 -5.588625 25.437410 2.272257 3.951829 -11.140870 0.000000 -0.000000 0.000000 -11.773975 -9.711619 -16.171209 0.755308 -1.321621 21.968242 3.014265 -3.548715 -11.560121 0.000000 -0.000000 0.000000 2.180633 4.696633 17.290765 2.827345 -5.690418 5.112640 2.760692 -0.604682 -0.960173 -2.859769 5.598105 13.882276 6.737915 5.366565 14.150562 -16.987680 -31.643675 2.975546 -79.350932 -31.031504 28.991433 0.684948 -13.475309 5.330219 31.546237 29.926877 -25.248523 17.727565 28.242467 8.862821 68.125402 34.955064 13.691722 -7.821251 6.099814 -17.718035 9.826290 0.196849 -53.756120 
-0.008549 -0.212067 0.947516 -174.865543 0.018435 90.394009 9.639920 1.556519 -19.913791 -7.975515 -5.626676 25.504163 2.341239 3.917839 -11.267388 0.000000 -0.000000 0.000000 -11.784218 -9.655760 -16.057616 0.778620 -1.230437 21.896386 2.944051 -3.669322 -11.662525 0.000000 -0.000000 0.000000 2.199130 4.599508 17.352001 2.683114 -5.763569 5.030240 2.830265 -0.668721 -0.804427 -3.016594 5.483416 13.581223 6.883400 5.543380 14.502486 -16.993630 -31.902363 2.993089 -79.389437 -30.958631 28.651565 0.810644 -13.452016 5.359809 33.169041 30.355947 -24.726393 17.813859 28.464270 8.895662 67.899336 34.915263 13.316736 -7.735392 6.162356 -17.754887 9.758080 0.015637 -53.546689 
-0.008431 -0.211810 0.947403 -174.853612 0.041909 90.368648 9.663510 1.631472 -19.890391 -7.966882 -5.626328 25.507312 2.349847 3.821997 -11.282599 0.000000 -0.000000 0.000000 -11.768225 -9.715500 -16.037157 0.792214 -1.345112 21.903096 2.868438 -3.602083 -11.626960 0.000000 -0.000000 0.000000 2.244806 4.519192 17.354737 2.641888 -5.814667 5.107661 2.764025 -0.683019 -0.837341 -3.033301 5.522763 13.518159 6.849489 5.602823 14.632428 -17.036680 -31.852307 3.080351 -79.500496 -31.072611 28.588734 1.010622 -13.271444 5.323703 33.153639 30.312497 -24.616461 17.818501 28.512717 8.922401 67.981935 35.006439 13.222603 -7.826305 5.847563 -17.833243 10.033668 1.159173 -54.464683 
-0.008299 -0.211600 0.947378 -174.837749 0.004056 90.403190 9.641325 1.606431 -19.893942 -7.989266 -5.653791 25.476955 2.257881 3.829763 -11.266662 0.000000 -0.000000 0.000000 -11.816266 -9.642596 -16.022215 0.783748 -1.392631 21.853878 2.877359 -3.611956 -11.644030 0.000000 -0.000000 0.000000 2.174538 4.560372 17.300263 2.667758 -5.805410 5.108728 2.797353 -0.715976 -0.781711 -3.027255 5.618660 13.459019 6.771224 5.455650 14.766513 -16.994074 -31.915473 3.068970 -79.619726 -31.007591 28.731166 1.028587 -13.524117 5.656729 32.986206 30.084391 -24.453248 17.870083 28.520896 9.067706 67.886610 35.061422 13.163055 -7.936940 5.906260 -17.596947 10.180778 0.812878 -54.134492 
-0.008249 -0.211451 0.947388 -174.831380 -0.010421 90.422461 9.628766 1.606650 -19.909053 -7.981869 -5.613129 25.458805 2.263025 3.842714 -11.245424 0.000000 -0.000000 0.000000 -11.823206 -9.638449 -16.042050 0.768058 -1.410052 21.874647 2.876482 -3.607781 -11.638855 0.000000 -0.000000 0.000000 2.167141 4.556342 17.293844 2.660939 -5.814440 5.107325 2.779344 -0.714259 -0.767986 -3.008745 5.677463 13.472941 6.762553 5.457747 14.798415 -16.989044 -31.914424 3.070992 -79.653919 -31.003299 28.765792 1.020462 -13.496505 5.732668 32.829494 29.981264 -24.494719 17.911240 28.504571 9.102989 67.883242 35.079549 13.169734 -7.954257 5.903167 -17.527459 10.205394 0.760263 -54.057783 
-0.008136 -0.211180 0.947388 -174.773448 -0.026573 90.409873 9.615372 1.613052 -19.884796 -7.969821 -5.615134 25.435361 2.283828 3.813538 -11.222365 0.000000 -0.000000 0.000000 -11.897662 -9.664894 -15.996034 0.842692 -1.426682 21.909130 2.885048 -3.555175 -11.691208 0.000000 -0.000000 0.000000 2.190530 4.544837 17.338884 2.657971 -5.836660 5.093923 2.767513 -0.762482 -0.790553 -3.030760 5.733294 13.472408 6.641727 5.472366 14.924009 -16.919282 -31.887244 3.037669 -79.774928 -30.976135 28.869859 1.036735 -13.417693 5.829391 32.513003 29.783741 -24.292664 17.967841 28.460018 9.110529 67.869478 35.028171 13.211168 -7.913746 5.894693 -17.435671 10.342672 1.056608 -54.138853 
-0.008007 -0.210818 0.947379 -174.754066 -0.078277 90.387060 9.573996 1.581261 -19.846039 -7.983267 -5.623693 25.460846 2.259094 3.800032 -11.221596 0.000000 -0.000000 0.000000 -11.971553 -9.665107 -15.965545 0.867767 -1.499416 21.936968 2.884898 -3.561497 -11.719301 0.000000 -0.000000 0.000000 2.167996 4.581725 17.405437 2.643999 -5.821274 5.078001 2.754868 -0.813876 -0.788090 -3.046263 5.785067 13.473556 6.565255 5.458891 14.886260 -16.978743 -31.870548 3.072549 -79.724678 -31.005008 28.820536 0.963193 -13.225608 5.660150 32.191779 29.586221 -24.448927 18.014080 28.371986 9.032261 67.953813 34.925931 13.294912 -7.945966 5.963163 -17.623758 10.337595 0.908687 -53.950707 
-0.007857 -0.210312 0.947264 -174.719615 -0.070243 90.424419 9.577503 1.587860 -19.903270 -7.978159 -5.659600 25.563065 2.246787 3.804848 -11.312497 0.000000 -0.000000 0.000000 -11.960387 -9.655004 -15.979192 0.855820 -1.577618 21.989178 2.847272 -3.592918 -11.777669 0.000000 -0.000000 0.000000 2.160538 4.584237 17.433606 2.681538 -5.799255 4.936953 2.786146 -0.846604 -0.764121 -3.119135 5.881938 13.563934 6.521591 5.399204 14.870855 -17.025156 -31.832581 3.130868 -79.751254 -30.984972 28.785922 0.940983 -13.095378 5.564750 31.891238 29.533459 -24.316820 18.092310 28.266780 8.976516 68.047349 34.771928 13.373096 -7.981622 6.002842 -17.805277 10.259330 0.654477 -53.658372 
-0.007448 -0.209756 0.947262 -174.763307 0.013036 90.424625 9.735683 1.693994 -19.899930 -8.049410 -5.662403 25.638739 2.249889 3.730229 -11.343690 0.000000 -0.000000 0.000000 -11.840005 -9.684188 -16.005380 0.888257 -1.519614 22.081877 2.860974 -3.592151 -11.786348 0.000000 -0.000000 0.000000 2.177854 4.630382 17.406219 2.724242 -5.701514 4.964138 2.838601 -0.873175 -0.740832 -3.147280 5.857147 13.661991 6.530958 5.349243 14.806562 -17.080909 -31.774055 3.172916 -79.777015 -30.982227 28.780076 0.953370 -13.098574 5.590300 31.920692 29.555828 -24.084842 18.093298 28.170266 8.890918 68.129821 34.653138 13.395210 -8.007584 6.085477 -17.904274 10.161833 0.554946 -53.658422 
-0.007347 -0.209265 0.947220 -174.780252 0.003565 90.395728 9.742807 1.678272 -19.849851 -8.050505 -5.605182 25.647020 2.240352 3.773152 -11.351383 0.000000 -0.000000 0.000000 -11.847764 -9.670707 -15.978353 0.889914 -1.499226 22.146286 2.818054 -3.612084 -11.845994 0.000000 -0.000000 0.000000 2.154052 4.664163 17.369961 2.767576 -5.704716 5.078363 2.846170 -0.843031 -0.705597 -3.118688 5.914397 13.622125 6.446904 5.272805 14.843576 -17.038705 -31.794129 3.159316 -79.779029 -31.001021 28.773760 0.935809 -13.111398 5.528436 31.937187 29.430058 -23.937243 18.109164 28.196692 8.960213 68.149359 34.676563 13.406091 -8.096931 6.149666 -18.034582 9.896187 0.417176 -53.542913 
-0.007516 -0.208752 0.947098 -174.738423 -0.047329 90.467474 9.648180 1.601533 -19.907455 -7.981008 -5.630080 25.655342 2.377510 3.755596 -11.395364 0.000000 -0.000000 0.000000 -11.888469 -9.599005 -16.041457 0.820458 -1.552211 22.221268 2.812748 -3.637980 -11.881678 0.000000 -0.000000 0.000000 2.153165 4.676301 17.242959 2.781814 -5.732346 5.124709 2.820989 -0.770997 -0.712365 -3.117767 6.025243 13.771289 6.443109 5.218377 14.805957 -16.971325 -31.776227 3.128162 -79.834101 -31.017875 28.773050 0.914203 -13.075974 5.480247 31.522910 29.132634 -23.478905 18.079619 28.132516 8.991392 68.214908 34.564848 13.358364 -8.204436 6.289367 -18.217663 10.088121 0.441899 -53.385349 
-0.007448 -0.208362 0.947178 -174.637889 -0.052765 90.448066 9.645489 1.593292 -19.887690 -8.018854 -5.603216 25.629845 2.296433 3.767104 -11.351562 0.000000 -0.000000 0.000000 -11.905852 -9.654961 -15.973759 0.807873 -1.630360 22.235869 2.872030 -3.656540 -11.921084 0.000000 -0.000000 0.000000 2.218500 4.725945 17.240929 2.804718 -5.780626 5.218120 2.782400 -0.803471 -0.735716 -2.983638 6.041703 13.660793 6.343399 5.066075 14.910581 -16.923966 -31.776617 3.117540 -79.770246 -31.089800 28.817969 0.830797 -13.038189 5.526066 31.273731 28.944201 -23.527174 18.146216 28.026590 9.041734 68.187819 34.585991 13.391333 -8.220184 6.421038 -18.288061 10.113892 0.521828 -53.641643 
-0.007596 -0.207727 0.947251 -174.534603 -0.078175 90.459225 9.586329 1.603972 -19.905752 -8.009672 -5.682625 25.730145 2.327090 3.713594 -11.442859 0.000000 -0.000000 0.000000 -11.940935 -9.717880 -15.914313 0.791616 -1.658365 22.235149 2.890097 -3.691772 -11.991095 0.000000 -0.000000 0.000000 2.254651 4.823943 17.202424 2.829491 -5.761331 5.106777 2.813416 -0.915434 -0.617489 -3.017606 5.929137 13.852574 6.382651 5.061069 14.749585 -17.060533 -31.903479 3.212691 -79.587776 -31.144492 28.746992 0.706474 -12.978773 5.635876 31.998206 29.092789 -22.791557 18.240549 28.032740 8.981018 68.122649 34.407799 13.257903 -8.250568 6.477020 -18.573424 9.625018 0.258776 -53.446107 
-0.007620 -0.207401 0.947148 -174.477760 -0.151374 90.492634 9.536202 1.556469 -19.924434 -8.069002 -5.674940 25.704069 2.362703 3.686474 -11.410127 0.000000 -0.000000 0.000000 -12.055535 -9.678771 -15.899453 0.818125 -1.742565 22.260161 2.895337 -3.617854 -11.998593 0.000000 -0.000000 0.000000 2.226986 4.858514 17.133750 2.848312 -5.759601 5.183510 2.801475 -0.930428 -0.596508 -3.072296 6.013281 13.830878 6.363180 4.969625 14.676472 -16.981486 -31.932443 3.197338 -79.519922 -31.242296 28.734858 0.833947 -13.095771 5.746946 31.716994 29.016233 -22.579886 18.247663 28.073536 8.989078 68.228614 34.440207 13.156580 -8.485788 6.308846 -18.873132 9.813330 0.642071 -53.542236 
-0.007639 -0.207018 0.947207 -174.490408 -0.166585 90.513481 9.528521 1.592356 -19.899495 -8.039149 -5.666516 25.667441 2.410037 3.603299 -11.459011 0.000000 -0.000000 0.000000 -12.065206 -9.632527 -15.935278 0.803945 -1.721239 22.313733 2.905170 -3.662204 -11.985502 0.000000 -0.000000 0.000000 2.169071 4.924197 17.122899 2.906835 -5.703099 5.225680 2.870243 -0.905005 -0.665038 -3.050953 6.071635 14.000047 6.307684 4.876929 14.463546 -16.943300 -31.948577 3.187589 -79.457403 -31.385951 28.707549 0.910396 -13.044353 5.837316 30.974668 28.815790 -22.429383 18.266131 28.032436 8.991447 68.310903 34.227664 13.227183 -8.690349 6.467975 -19.031018 9.676155 0.542318 -53.530796 
-0.007680 -0.206570 0.947248 -174.473690 -0.174457 90.525909 9.538133 1.660176 -19.883232 -8.095064 -5.608469 25.588619 2.435630 3.605938 -11.386571 0.000000 -0.000000 0.000000 -12.081327 -9.556767 -15.930257 0.815175 -1.687612 22.356247 2.899734 -3.772230 -11.987566 0.000000 -0.000000 0.000000 2.157281 4.913242 17.027277 2.928436 -5.705443 5.330161 2.870328 -0.853633 -0.614571 -2.876289 6.193690 14.070507 6.103476 4.686260 14.445020 -16.658042 -31.889235 2.994079 -79.348066 -31.682173 28.628815 0.873486 -12.821254 5.904297 30.448293 28.521457 -21.288177 18.237705 27.998696 8.978729 68.368173 34.109461 13.306899 -8.687109 6.671341 -19.304314 9.041709 0.212599 -53.558596 
